Coordinates
version=1
nRows=12
nColumns=46
inDegrees=yes

Units are S.I. units (second, meters, Newtons, ...)
Angles are in degrees.

endheader
time	pelvis_tilt	pelvis_list	pelvis_rotation	pelvis_tx	pelvis_ty	pelvis_tz	bb_angle	bb_tx	bb_ty	bb_tz	hip_flexion_r	hip_adduction_r	hip_rotation_r	knee_angle_r	knee_angle_r_beta	ankle_angle_r	subtalar_angle_r	mtp_angle_r	crank_angle_r	hip_flexion_l	hip_adduction_l	hip_rotation_l	knee_angle_l	knee_angle_l_beta	ankle_angle_l	subtalar_angle_l	mtp_angle_l	crank_angle_l	lumbar_extension	lumbar_bending	lumbar_rotation	arm_flex_r	arm_add_r	arm_rot_r	elbow_flex_r	pro_sup_r	wrist_flex_r	wrist_dev_r	arm_flex_l	arm_add_l	arm_rot_l	elbow_flex_l	pro_sup_l	wrist_flex_l	wrist_dev_l
      0.00000000	    -15.79143606	     -2.52713111	      1.77303368	      0.10963505	      1.13849261	     -0.24809284	      0.00000000	      0.50000000	      0.00000000	      0.25000000	     72.42122569	     -8.29827351	     -5.95464034	    101.85911894	      1.77777700	      5.82241399	     -6.27395444	      0.00000000	      0.00000000	     66.05483334	     -6.75693914	      0.62545724	     57.71170273	      1.00725923	     -2.88042034	     -2.40622287	      0.00000000	      0.00000000	    -54.55075052	      0.76243186	      3.57438287	     89.83152718	      1.04183975	     19.14434335	     35.52089545	     18.64783853	      0.00000000	      0.00000000	     89.80681852	      4.67649487	     20.82713865	     35.91078342	     18.22130445	      0.00000000	      0.00000000
      0.00500000	    -15.77734143	     -2.53857393	      1.77289623	      0.10956124	      1.13850819	     -0.24811616	      0.00000000	      0.50000000	      0.00000000	      0.25000000	     72.38375481	     -8.29584210	     -5.97366207	    101.82490049	      1.77717977	      5.84717852	     -6.26189522	      0.00000000	      0.00000000	     66.07699382	     -6.75556049	      0.65784156	     57.75741213	      1.00805701	     -2.84589601	     -2.45858281	      0.00000000	      0.00000000	    -54.57266189	      0.78175816	      3.59085010	     89.83166955	      1.04396683	     19.15434550	     35.59776063	     18.36661765	      0.00000000	      0.00000000	     89.80647024	      4.68217150	     20.78337055	     35.98846825	     17.93694085	      0.00000000	      0.00000000
      0.01000000	    -15.77656731	     -2.56185368	      1.82747810	      0.10945428	      1.13845131	     -0.24819326	      0.00000000	      0.50000000	      0.00000000	      0.25000000	     72.35234546	     -8.34253461	     -6.02086152	    101.80167614	      1.77677443	      5.83558574	     -6.30789783	      0.00000000	      0.00000000	     66.12864323	     -6.71445521	      0.72349975	     57.79382438	      1.00869252	     -2.85035781	     -2.37185003	      0.00000000	      0.00000000	    -54.56809030	      0.85258844	      3.55389937	     89.83225817	      1.13602669	     18.77791091	     34.51366361	     23.87409007	      0.00000000	      0.00000000	     89.80736964	      4.52425114	     20.91595146	     34.89440917	     23.71983177	      0.00000000	      0.00000000
      0.01500000	    -15.75671062	     -2.51541475	      1.78232005	      0.10939173	      1.13850696	     -0.24812652	      0.00000000	      0.50000000	      0.00000000	      0.25000000	     72.34087736	     -8.32818375	     -5.95727534	    101.78698260	      1.77651798	      5.81819990	     -6.23212900	      0.00000000	      0.00000000	     66.11649668	     -6.73858274	      0.64821649	     57.81517278	      1.00906512	     -2.86503684	     -2.41111813	      0.00000000	      0.00000000	    -54.62529642	      0.74634304	      3.58467822	     89.83153169	      1.02557094	     18.92055056	     35.73470478	     18.24941169	      0.00000000	      0.00000000	     89.80756699	      4.70362452	     20.78412489	     36.10830843	     17.81267393	      0.00000000	      0.00000000
      0.02000000	    -15.75223815	     -2.50437608	      1.73240243	      0.10938997	      1.13846575	     -0.24789766	      0.00000000	      0.50000000	      0.00000000	      0.25000000	     72.32386691	     -8.24612836	     -5.92140604	    101.75826854	      1.77601683	      5.82580608	     -6.31309910	      0.00000000	      0.00000000	     66.14289248	     -6.82302936	      0.57054112	     57.85992504	      1.00984620	     -2.81400049	     -2.35818809	      0.00000000	      0.00000000	    -54.64918809	      0.69297885	      3.63442517	     89.83074857	      1.31790594	     17.56311677	     34.76500130	     23.89999285	      0.00000000	      0.00000000	     89.80846350	      4.93343740	     19.74393957	     35.03863229	     23.77136811	      0.00000000	      0.00000000
      0.02500000	    -15.73803575	     -2.52905954	      1.76875561	      0.10931957	      1.13847213	     -0.24796555	      0.00000000	      0.50000000	      0.00000000	      0.25000000	     72.27032571	     -8.27628722	     -5.97422807	    101.71704918	      1.77529741	      5.81192884	     -6.32503265	      0.00000000	      0.00000000	     66.17549244	     -6.80132842	      0.62157917	     57.90293429	      1.01059685	     -2.80483303	     -2.31374481	      0.00000000	      0.00000000	    -54.65412396	      0.72900653	      3.60896391	     89.83193806	      0.96875143	     19.01621933	     35.76514455	     18.32050748	      0.00000000	      0.00000000	     89.80745195	      4.72829844	     20.61433713	     36.19262841	     17.87610480	      0.00000000	      0.00000000
      0.03000000	    -15.60114527	     -2.49295430	      1.82681667	      0.10925248	      1.13885308	     -0.24815099	      0.00000000	      0.50000000	      0.00000000	      0.25000000	     72.07941289	     -8.36074741	     -5.98332705	    101.68102177	      1.77466862	      5.84963515	     -6.38645444	      0.00000000	      0.00000000	     66.01696559	     -6.70726035	      0.67612613	     57.86596479	      1.00995161	     -2.81858632	     -2.32586105	      0.00000000	      0.00000000	    -54.85929525	      0.78038681	      3.61326413	     89.83186797	      1.10151247	     18.30431115	     35.71724331	     20.07943014	      0.00000000	      0.00000000	     89.80701059	      4.89697794	     20.00739767	     36.04232466	     19.66773860	      0.00000000	      0.00000000
      0.03500000	    -15.72346919	     -2.49782846	      1.75769953	      0.10918613	      1.13846343	     -0.24795029	      0.00000000	      0.50000000	      0.00000000	      0.25000000	     72.22217591	     -8.27576848	     -5.94902270	    101.67266483	      1.77452276	      5.81907692	     -6.32689423	      0.00000000	      0.00000000	     66.21631198	     -6.79884915	      0.59780765	     57.97265356	      1.01181368	     -2.76626011	     -2.27588054	      0.00000000	      0.00000000	    -54.67402421	      0.70033066	      3.58483440	     89.83190150	      0.94045292	     19.08868583	     35.76510539	     18.50594001	      0.00000000	      0.00000000	     89.80804899	      4.72177146	     20.61986646	     36.16832018	     17.99524902	      0.00000000	      0.00000000
      0.04000000	    -15.60850042	     -2.51004074	      1.82334941	      0.10911214	      1.13872083	     -0.24807912	      0.00000000	      0.50000000	      0.00000000	      0.25000000	     72.04368784	     -8.34389498	     -6.01432618	    101.63353495	      1.77383982	      5.90538410	     -6.40585416	      0.00000000	      0.00000000	     66.13858457	     -6.75056878	      0.65444660	     58.01839481	      1.01261202	     -2.81913233	     -2.27010330	      0.00000000	      0.00000000	    -54.84630169	      0.74977357	      3.57500807	     89.83100503	      0.95000370	     18.71667154	     35.90145927	     19.22929111	      0.00000000	      0.00000000	     89.80857250	      4.79792947	     20.30254897	     36.23686055	     18.73639401	      0.00000000	      0.00000000
      0.04500000	    -15.72463619	     -2.51182596	      1.76833746	      0.10902375	      1.13843399	     -0.24797075	      0.00000000	      0.50000000	      0.00000000	      0.25000000	     72.17415828	     -8.27780312	     -5.97746742	    101.61024121	      1.77343326	      5.84294992	     -6.32312548	      0.00000000	      0.00000000	     66.30126988	     -6.79491764	      0.64964623	     58.06667217	      1.01345461	     -2.78428543	     -2.24007822	      0.00000000	      0.00000000	    -54.67468785	      0.71571051	      3.60219952	     89.83190940	      0.92865063	     19.03876195	     35.82979926	     18.31118176	      0.00000000	      0.00000000	     89.80823542	      4.75163234	     20.57334053	     36.23955747	     17.83256293	      0.00000000	      0.00000000
      0.05000000	    -15.72200766	     -2.50576450	      1.76082967	      0.10896407	      1.13843209	     -0.24797040	      0.00000000	      0.50000000	      0.00000000	      0.25000000	     72.14971116	     -8.27659209	     -5.97492592	    101.57712754	      1.77285532	      5.82643014	     -6.30817149	      0.00000000	      0.00000000	     66.32199071	     -6.79238399	      0.65191372	     58.09453895	      1.01394098	     -2.78109505	     -2.26888337	      0.00000000	      0.00000000	    -54.68932536	      0.70830467	      3.59303191	     89.83208525	      0.93235053	     19.06358985	     35.81829784	     18.42091051	      0.00000000	      0.00000000	     89.80834072	      4.71072306	     20.60206922	     36.26100866	     17.91650451	      0.00000000	      0.00000000
      0.05500000	    -15.64749602	     -2.52626624	      1.78651975	      0.10891243	      1.13857518	     -0.24801442	      0.00000000	      0.50000000	      0.00000000	      0.25000000	     72.02990188	     -8.29332288	     -6.02134910	    101.54701840	      1.77232982	      5.86187684	     -6.34684452	      0.00000000	      0.00000000	     66.28134612	     -6.79639445	      0.66704698	     58.11763350	      1.01434406	     -2.80018896	     -2.28011792	      0.00000000	      0.00000000	    -54.78775594	      0.75257912	      3.62642750	     89.83138396	      0.99561684	     18.66886298	     35.80791630	     19.47354672	      0.00000000	      0.00000000	     89.80782295	      4.79720165	     20.27639454	     36.16019305	     19.00709351	      0.00000000	      0.00000000
